<mxfile host="app.diagrams.net" agent="Mozilla/5.0 (Windows NT 10.0; Win64; x64) AppleWebKit/537.36 (KHTML, like Gecko) Chrome/129.0.0.0 Safari/537.36" version="24.7.16">
  <diagram name="Página-1" id="ltksKVrQ6gyaO2n34iPM">
    <mxGraphModel grid="1" page="1" gridSize="10" guides="1" tooltips="1" connect="1" arrows="1" fold="1" pageScale="1" pageWidth="827" pageHeight="1169" math="0" shadow="0">
      <root>
        <mxCell id="0" />
        <mxCell id="1" parent="0" />
        <mxCell id="uuBopVSFuwpARMn551ZF-30" value="" style="whiteSpace=wrap;html=1;" vertex="1" parent="1">
          <mxGeometry x="-30" y="-130" width="910" height="800" as="geometry" />
        </mxCell>
        <mxCell id="uuBopVSFuwpARMn551ZF-1" value="Contador" style="shape=umlActor;verticalLabelPosition=bottom;verticalAlign=top;html=1;outlineConnect=0;fillColor=#B9E0A5;" vertex="1" parent="1">
          <mxGeometry x="-10" y="250" width="50" height="100" as="geometry" />
        </mxCell>
        <mxCell id="uuBopVSFuwpARMn551ZF-2" value="" style="whiteSpace=wrap;html=1;" vertex="1" parent="1">
          <mxGeometry x="50" y="-30" width="740" height="660" as="geometry" />
        </mxCell>
        <mxCell id="uuBopVSFuwpARMn551ZF-8" style="edgeStyle=orthogonalEdgeStyle;rounded=0;orthogonalLoop=1;jettySize=auto;html=1;exitX=1;exitY=0.5;exitDx=0;exitDy=0;" edge="1" parent="1" source="uuBopVSFuwpARMn551ZF-3" target="uuBopVSFuwpARMn551ZF-5">
          <mxGeometry relative="1" as="geometry" />
        </mxCell>
        <mxCell id="uuBopVSFuwpARMn551ZF-3" value="Ingresa con sus credenciales a su perfil de &quot;Contador&quot;" style="ellipse;whiteSpace=wrap;html=1;fillColor=#B9E0A5;" vertex="1" parent="1">
          <mxGeometry x="120" y="40" width="120" height="80" as="geometry" />
        </mxCell>
        <mxCell id="uuBopVSFuwpARMn551ZF-9" style="edgeStyle=orthogonalEdgeStyle;rounded=0;orthogonalLoop=1;jettySize=auto;html=1;exitX=1;exitY=0.5;exitDx=0;exitDy=0;entryX=0;entryY=0.5;entryDx=0;entryDy=0;" edge="1" parent="1" source="uuBopVSFuwpARMn551ZF-5" target="uuBopVSFuwpARMn551ZF-7">
          <mxGeometry relative="1" as="geometry" />
        </mxCell>
        <mxCell id="uuBopVSFuwpARMn551ZF-5" value="Selecciona la opción &quot;Generar estado financiero&quot;" style="ellipse;whiteSpace=wrap;html=1;fillColor=#B9E0A5;" vertex="1" parent="1">
          <mxGeometry x="294" y="40" width="120" height="80" as="geometry" />
        </mxCell>
        <mxCell id="uuBopVSFuwpARMn551ZF-6" value="Sistema" style="shape=umlActor;verticalLabelPosition=bottom;verticalAlign=top;html=1;outlineConnect=0;fillColor=#E6D0DE;" vertex="1" parent="1">
          <mxGeometry x="810" y="250" width="50" height="100" as="geometry" />
        </mxCell>
        <mxCell id="uuBopVSFuwpARMn551ZF-7" value="Solicita los parámetros del estado financiero (Periodos)" style="ellipse;whiteSpace=wrap;html=1;fillColor=#E6D0DE;" vertex="1" parent="1">
          <mxGeometry x="470" y="35" width="130" height="90" as="geometry" />
        </mxCell>
        <mxCell id="uuBopVSFuwpARMn551ZF-10" value="" style="endArrow=none;dashed=1;html=1;dashPattern=1 3;strokeWidth=2;rounded=0;exitX=1;exitY=0.5;exitDx=0;exitDy=0;" edge="1" parent="1" source="uuBopVSFuwpARMn551ZF-7">
          <mxGeometry width="50" height="50" relative="1" as="geometry">
            <mxPoint x="620" y="210" as="sourcePoint" />
            <mxPoint x="800" y="260" as="targetPoint" />
          </mxGeometry>
        </mxCell>
        <mxCell id="uuBopVSFuwpARMn551ZF-14" style="edgeStyle=orthogonalEdgeStyle;rounded=0;orthogonalLoop=1;jettySize=auto;html=1;exitX=0;exitY=0.5;exitDx=0;exitDy=0;entryX=1;entryY=0.5;entryDx=0;entryDy=0;" edge="1" parent="1" source="uuBopVSFuwpARMn551ZF-11" target="uuBopVSFuwpARMn551ZF-13">
          <mxGeometry relative="1" as="geometry" />
        </mxCell>
        <mxCell id="uuBopVSFuwpARMn551ZF-11" value="Solicita el tipo de informe (Balance General, Estado de Resultados, Estado de Flujo de Efectivo)" style="ellipse;whiteSpace=wrap;html=1;fillColor=#E6D0DE;" vertex="1" parent="1">
          <mxGeometry x="455" y="170" width="160" height="100" as="geometry" />
        </mxCell>
        <mxCell id="uuBopVSFuwpARMn551ZF-12" value="" style="endArrow=none;dashed=1;html=1;dashPattern=1 3;strokeWidth=2;rounded=0;entryX=0.5;entryY=1;entryDx=0;entryDy=0;" edge="1" parent="1" source="uuBopVSFuwpARMn551ZF-11" target="uuBopVSFuwpARMn551ZF-7">
          <mxGeometry width="50" height="50" relative="1" as="geometry">
            <mxPoint x="370" y="260" as="sourcePoint" />
            <mxPoint x="420" y="210" as="targetPoint" />
          </mxGeometry>
        </mxCell>
        <mxCell id="uuBopVSFuwpARMn551ZF-16" style="rounded=0;orthogonalLoop=1;jettySize=auto;html=1;exitX=0.5;exitY=1;exitDx=0;exitDy=0;entryX=0.5;entryY=0;entryDx=0;entryDy=0;" edge="1" parent="1" source="uuBopVSFuwpARMn551ZF-13" target="uuBopVSFuwpARMn551ZF-15">
          <mxGeometry relative="1" as="geometry" />
        </mxCell>
        <mxCell id="uuBopVSFuwpARMn551ZF-13" value="Selecciona el periodo y tipo de documento que necesita" style="ellipse;whiteSpace=wrap;html=1;fillColor=#B9E0A5;" vertex="1" parent="1">
          <mxGeometry x="280" y="175" width="144" height="90" as="geometry" />
        </mxCell>
        <mxCell id="uuBopVSFuwpARMn551ZF-27" style="edgeStyle=orthogonalEdgeStyle;rounded=0;orthogonalLoop=1;jettySize=auto;html=1;exitX=0.5;exitY=1;exitDx=0;exitDy=0;entryX=0.5;entryY=0;entryDx=0;entryDy=0;" edge="1" parent="1" source="uuBopVSFuwpARMn551ZF-15" target="uuBopVSFuwpARMn551ZF-26">
          <mxGeometry relative="1" as="geometry" />
        </mxCell>
        <mxCell id="uuBopVSFuwpARMn551ZF-15" value="Genera el informe&amp;nbsp;" style="ellipse;whiteSpace=wrap;html=1;fillColor=#E6D0DE;" vertex="1" parent="1">
          <mxGeometry x="480" y="310" width="120" height="80" as="geometry" />
        </mxCell>
        <mxCell id="uuBopVSFuwpARMn551ZF-17" value="" style="endArrow=none;dashed=1;html=1;dashPattern=1 3;strokeWidth=2;rounded=0;exitX=1;exitY=0.5;exitDx=0;exitDy=0;" edge="1" parent="1" source="uuBopVSFuwpARMn551ZF-15">
          <mxGeometry width="50" height="50" relative="1" as="geometry">
            <mxPoint x="390" y="320" as="sourcePoint" />
            <mxPoint x="800" y="320" as="targetPoint" />
          </mxGeometry>
        </mxCell>
        <mxCell id="uuBopVSFuwpARMn551ZF-19" value="" style="endArrow=none;dashed=1;html=1;dashPattern=1 3;strokeWidth=2;rounded=0;exitX=1;exitY=0.5;exitDx=0;exitDy=0;" edge="1" parent="1" source="uuBopVSFuwpARMn551ZF-11">
          <mxGeometry width="50" height="50" relative="1" as="geometry">
            <mxPoint x="390" y="220" as="sourcePoint" />
            <mxPoint x="800" y="290" as="targetPoint" />
          </mxGeometry>
        </mxCell>
        <mxCell id="uuBopVSFuwpARMn551ZF-20" value="Opción &quot;Ver en pantalla&quot;" style="ellipse;whiteSpace=wrap;html=1;fillColor=#E6D0DE;" vertex="1" parent="1">
          <mxGeometry x="320" y="545" width="120" height="80" as="geometry" />
        </mxCell>
        <mxCell id="uuBopVSFuwpARMn551ZF-21" value="Opción &quot;Descargar&quot;&amp;nbsp;" style="ellipse;whiteSpace=wrap;html=1;fillColor=#E6D0DE;" vertex="1" parent="1">
          <mxGeometry x="480" y="550" width="120" height="80" as="geometry" />
        </mxCell>
        <mxCell id="uuBopVSFuwpARMn551ZF-22" value="Opción &quot;Imprimir informe&quot;" style="ellipse;whiteSpace=wrap;html=1;fillColor=#E6D0DE;" vertex="1" parent="1">
          <mxGeometry x="650" y="550" width="120" height="80" as="geometry" />
        </mxCell>
        <mxCell id="uuBopVSFuwpARMn551ZF-23" value="" style="endArrow=none;dashed=1;html=1;dashPattern=1 3;strokeWidth=2;rounded=0;entryX=0.592;entryY=0;entryDx=0;entryDy=0;entryPerimeter=0;exitX=0;exitY=1;exitDx=0;exitDy=0;" edge="1" parent="1" source="uuBopVSFuwpARMn551ZF-26" target="uuBopVSFuwpARMn551ZF-20">
          <mxGeometry width="50" height="50" relative="1" as="geometry">
            <mxPoint x="250" y="450" as="sourcePoint" />
            <mxPoint x="300" y="400" as="targetPoint" />
          </mxGeometry>
        </mxCell>
        <mxCell id="uuBopVSFuwpARMn551ZF-24" value="" style="endArrow=none;dashed=1;html=1;dashPattern=1 3;strokeWidth=2;rounded=0;entryX=0.5;entryY=1;entryDx=0;entryDy=0;exitX=0.5;exitY=0;exitDx=0;exitDy=0;" edge="1" parent="1" source="uuBopVSFuwpARMn551ZF-21" target="uuBopVSFuwpARMn551ZF-26">
          <mxGeometry width="50" height="50" relative="1" as="geometry">
            <mxPoint x="170" y="460" as="sourcePoint" />
            <mxPoint x="220" y="410" as="targetPoint" />
          </mxGeometry>
        </mxCell>
        <mxCell id="uuBopVSFuwpARMn551ZF-25" value="" style="endArrow=none;dashed=1;html=1;dashPattern=1 3;strokeWidth=2;rounded=0;exitX=1;exitY=1;exitDx=0;exitDy=0;entryX=0.375;entryY=0.05;entryDx=0;entryDy=0;entryPerimeter=0;" edge="1" parent="1" source="uuBopVSFuwpARMn551ZF-26" target="uuBopVSFuwpARMn551ZF-22">
          <mxGeometry width="50" height="50" relative="1" as="geometry">
            <mxPoint x="230" y="560" as="sourcePoint" />
            <mxPoint x="280" y="510" as="targetPoint" />
          </mxGeometry>
        </mxCell>
        <mxCell id="uuBopVSFuwpARMn551ZF-26" value="Selecciona la opción deseada" style="ellipse;whiteSpace=wrap;html=1;fillColor=#B9E0A5;" vertex="1" parent="1">
          <mxGeometry x="480" y="420" width="120" height="80" as="geometry" />
        </mxCell>
        <mxCell id="uuBopVSFuwpARMn551ZF-28" value="" style="endArrow=classic;html=1;rounded=0;entryX=0;entryY=0.5;entryDx=0;entryDy=0;" edge="1" parent="1" source="uuBopVSFuwpARMn551ZF-1" target="uuBopVSFuwpARMn551ZF-3">
          <mxGeometry width="50" height="50" relative="1" as="geometry">
            <mxPoint x="150" y="320" as="sourcePoint" />
            <mxPoint x="200" y="270" as="targetPoint" />
          </mxGeometry>
        </mxCell>
        <mxCell id="uuBopVSFuwpARMn551ZF-29" value="&lt;font style=&quot;font-size: 24px;&quot;&gt;Sistema contable&lt;/font&gt;" style="whiteSpace=wrap;html=1;" vertex="1" parent="1">
          <mxGeometry x="50" y="-90" width="740" height="60" as="geometry" />
        </mxCell>
      </root>
    </mxGraphModel>
  </diagram>
</mxfile>
